<svg width="60" height="60" viewBox="0 0 60 60" fill="none" xmlns="http://www.w3.org/2000/svg">
<path fill-rule="evenodd" clip-rule="evenodd" d="M0 30C0 13.4314 13.4314 0 30 0C46.5686 0 60 13.4314 60 30C60 46.5686 46.5686 60 30 60C13.4314 60 0 46.5686 0 30ZM29.9568 22.0266C32.3943 22.0266 34.0386 23.0811 34.9761 23.9623L38.6396 20.38C36.3896 18.2855 33.4617 17 29.9568 17C24.8796 17 20.4949 19.9177 18.3601 24.1644C17.4805 25.9266 16.9756 27.9055 16.9756 30C16.9756 32.0945 17.4805 34.0734 18.3604 35.8356L22.5461 32.5911L18.3745 35.8356C20.5093 40.0823 24.8796 43 29.9565 43C33.4617 43 36.4041 41.8445 38.5532 39.8511C41.0054 37.5834 42.4187 34.2467 42.4187 30.2889C42.4187 29.22 42.3323 28.4399 42.1448 27.6311H29.9568V32.4556H37.1108C36.9666 33.6544 36.1877 35.46 34.457 36.6733C33.3606 37.439 31.8894 37.9734 29.9565 37.9734C26.5239 37.9734 23.6104 35.7056 22.572 32.571C22.2979 31.7622 22.1392 30.8955 22.1392 30C22.1392 29.1044 22.2979 28.2378 22.5574 27.4288C23.6104 24.2944 26.5239 22.0266 29.9568 22.0266Z" fill="#23273A"/>
</svg>
