<svg width="178" height="58" viewBox="0 0 178 58" fill="none" xmlns="http://www.w3.org/2000/svg">
<path opacity="0.7" d="M83.65 35.819H68.686L65.59 43H60L73.846 12.384H78.361L92.25 43H86.703L83.65 35.819ZM81.801 31.519L76.168 18.404L70.535 31.519H81.801ZM107.27 20.769C108.101 20.769 108.818 20.8837 109.42 21.113L109.377 26.015C108.46 25.6423 107.514 25.456 106.539 25.456C104.704 25.456 103.3 25.9863 102.325 27.047C101.379 28.1077 100.906 29.5123 100.906 31.261V43H95.574V27.434C95.574 25.1407 95.4593 23.091 95.23 21.285H100.261L100.691 25.112C101.236 23.7073 102.096 22.6323 103.271 21.887C104.446 21.1417 105.779 20.769 107.27 20.769ZM124.509 20.769C125.34 20.769 126.057 20.8837 126.659 21.113L126.616 26.015C125.699 25.6423 124.753 25.456 123.778 25.456C121.943 25.456 120.539 25.9863 119.564 27.047C118.618 28.1077 118.145 29.5123 118.145 31.261V43H112.813V27.434C112.813 25.1407 112.698 23.091 112.469 21.285H117.5L117.93 25.112C118.475 23.7073 119.335 22.6323 120.51 21.887C121.685 21.1417 123.018 20.769 124.509 20.769ZM150.401 21.285V43H145.112V39.517C144.452 40.721 143.506 41.667 142.274 42.355C141.041 43.0143 139.636 43.344 138.06 43.344C136.168 43.344 134.491 42.8853 133.029 41.968C131.567 41.0507 130.434 39.7463 129.632 38.055C128.829 36.3637 128.428 34.4 128.428 32.164C128.428 29.928 128.829 27.95 129.632 26.23C130.463 24.4813 131.61 23.134 133.072 22.188C134.534 21.2133 136.196 20.726 138.06 20.726C139.636 20.726 141.041 21.07 142.274 21.758C143.506 22.4173 144.452 23.349 145.112 24.553V21.285H150.401ZM139.522 39.13C141.299 39.13 142.675 38.5137 143.65 37.281C144.624 36.0483 145.112 34.314 145.112 32.078C145.112 29.7847 144.624 28.0217 143.65 26.789C142.675 25.5563 141.285 24.94 139.479 24.94C137.701 24.94 136.311 25.585 135.308 26.875C134.333 28.1363 133.846 29.8993 133.846 32.164C133.846 34.4 134.333 36.12 135.308 37.324C136.311 38.528 137.716 39.13 139.522 39.13ZM177.209 21.285L167.104 44.462C165.957 47.1567 164.495 49.1203 162.718 50.353C160.941 51.5857 158.748 52.4027 156.139 52.804L154.935 48.676C156.97 48.2173 158.49 47.6297 159.493 46.913C160.525 46.225 161.356 45.193 161.987 43.817L162.675 42.226L153.645 21.285H159.278L165.513 36.894L171.877 21.285H177.209Z" fill="white"/>
<path fill-rule="evenodd" clip-rule="evenodd" d="M27 4C12.0883 4 0 16.0883 0 31C0 45.9117 12.0883 58 27 58C41.9117 58 54 45.9117 54 31C54 16.0883 41.9117 4 27 4ZM18.7988 44L21.3408 36.9492H32.6592L35.2383 44H38.8936L28.5586 16.9844H25.4414L15.125 44H18.7988ZM31.6016 34.0176H22.417L27 21.3818L31.6016 34.0176Z" fill="white"/>
</svg>
