<svg width="20" height="19" viewBox="0 0 20 19" fill="none" xmlns="http://www.w3.org/2000/svg">
<path d="M8.99999 19C10.2417 19 11.2489 18.1047 11.2489 17H6.75105C6.75105 18.1047 7.75828 19 8.99999 19ZM16.5723 14.3216C15.8931 13.6728 14.6222 12.6969 14.6222 9.5C14.6222 7.07188 12.7069 5.12812 10.1243 4.65125V4C10.1243 3.44781 9.62085 3 8.99999 3C8.37913 3 7.8757 3.44781 7.8757 4V4.65125C5.29312 5.12812 3.37781 7.07188 3.37781 9.5C3.37781 12.6969 2.10691 13.6728 1.42769 14.3216C1.21675 14.5231 1.12324 14.7641 1.12499 15C1.12886 15.5125 1.58132 16 2.25351 16H15.7465C16.4187 16 16.8715 15.5125 16.875 15C16.8768 14.7641 16.7832 14.5228 16.5723 14.3216Z" fill="#C5C7CD"/>
<path d="M14.625 8.75C16.8177 8.75 18.75 7.15167 18.75 5C18.75 2.84833 16.8177 1.25 14.625 1.25C12.4323 1.25 10.5 2.84833 10.5 5C10.5 7.15167 12.4323 8.75 14.625 8.75Z" fill="#3751FF" stroke="#F7F8FC" stroke-width="1.5"/>
</svg>
